<svg width="375" height="812" viewBox="0 0 375 812" fill="none" xmlns="http://www.w3.org/2000/svg">
<g clip-path="url(#clip0_)">
<rect width="375" height="812" fill="#202024"/>
<circle cx="278" cy="99" r="300" transform="rotate(-180 278 99)" fill="url(#paint0_radial_)"/>
<circle cx="98" cy="99" r="300" transform="rotate(-180 98 99)" fill="url(#paint1_radial_)"/>
<mask id="mask0_" style="mask-type:alpha" maskUnits="userSpaceOnUse" x="0" y="0" width="375" height="812">
<rect x="0.5" y="0.5" width="374" height="811" fill="#202024"/>
<rect x="0.5" y="0.5" width="374" height="811" stroke="black"/>
<rect x="0.5" y="0.5" width="374" height="811" stroke="black" stroke-opacity="0.2"/>
</mask>
<g mask="url(#mask0_)">
<g filter="url(#filter0_d_)">
<path d="M375 179.85V-246.925L187.478 -343L-0.0446777 -246.925V179.85L187.478 275.931L375 179.85Z" fill="url(#paint2_linear_)"/>
<g style="mix-blend-mode:luminosity" opacity="0.4">
<path d="M1.83663 84.7371V180.471L95.1275 228.343L188.418 180.471V84.7371L95.1275 36.8654L1.83663 84.7371Z" fill="url(#paint3_linear_)"/>
<path d="M1.83663 -11.0019V84.7323L95.1275 132.604L188.418 84.7323V-11.0019L95.1275 -58.8735L1.83663 -11.0019Z" fill="url(#paint4_linear_)"/>
<path d="M281.709 -58.8487V36.8854L188.418 84.7571L95.1274 36.8854V-58.8487L188.418 -106.72L281.709 -58.8487Z" fill="url(#paint5_linear_)"/>
<path d="M188.418 180.471V84.7367L281.709 36.8651L375 84.7367V180.471L281.709 228.342L188.418 180.471Z" fill="url(#paint6_linear_)"/>
<path d="M375 -11.0019V84.7323L281.709 132.604L188.418 84.7323V-11.0019L281.709 -58.8735L375 -11.0019Z" fill="url(#paint7_linear_)"/>
<path d="M281.709 228.363V132.629L188.418 84.7571L95.1274 132.629L95.1274 228.363L188.418 276.234L281.709 228.363Z" fill="url(#paint8_linear_)"/>
</g>
</g>
</g>
</g>
<defs>
<filter id="filter0_d_" x="-4.04468" y="-343" width="383.045" height="627.234" filterUnits="userSpaceOnUse" color-interpolation-filters="sRGB">
<feFlood flood-opacity="0" result="BackgroundImageFix"/>
<feColorMatrix in="SourceAlpha" type="matrix" values="0 0 0 0 0 0 0 0 0 0 0 0 0 0 0 0 0 0 127 0" result="hardAlpha"/>
<feOffset dy="4"/>
<feGaussianBlur stdDeviation="2"/>
<feComposite in2="hardAlpha" operator="out"/>
<feColorMatrix type="matrix" values="0 0 0 0 0 0 0 0 0 0 0 0 0 0 0 0 0 0 0.25 0"/>
<feBlend mode="normal" in2="BackgroundImageFix" result="effect1_dropShadow_"/>
<feBlend mode="normal" in="SourceGraphic" in2="effect1_dropShadow_" result="shape"/>
</filter>
<radialGradient id="paint0_radial_" cx="0" cy="0" r="1" gradientUnits="userSpaceOnUse" gradientTransform="translate(278 99) rotate(90) scale(300)">
<stop stop-color="#FF2323"/>
<stop offset="1" stop-color="#121214" stop-opacity="0"/>
</radialGradient>
<radialGradient id="paint1_radial_" cx="0" cy="0" r="1" gradientUnits="userSpaceOnUse" gradientTransform="translate(98 99) rotate(90) scale(300)">
<stop stop-color="#FF0202"/>
<stop offset="1" stop-color="#121214" stop-opacity="0"/>
</radialGradient>
<linearGradient id="paint2_linear_" x1="-67.9497" y1="82.5491" x2="422.683" y2="271.924" gradientUnits="userSpaceOnUse">
<stop stop-color="#E10100"/>
<stop offset="1" stop-color="#2E1212"/>
</linearGradient>
<linearGradient id="paint3_linear_" x1="95.1275" y1="223.94" x2="17.2362" y2="74.8123" gradientUnits="userSpaceOnUse">
<stop stop-color="#740303"/>
<stop offset="1" stop-color="#FF0606" stop-opacity="0"/>
</linearGradient>
<linearGradient id="paint4_linear_" x1="95.1275" y1="128.201" x2="17.2361" y2="-20.9266" gradientUnits="userSpaceOnUse">
<stop stop-color="#740303"/>
<stop offset="1" stop-color="#FF0606" stop-opacity="0"/>
</linearGradient>
<linearGradient id="paint5_linear_" x1="95.1275" y1="-64.2291" x2="269.389" y2="53.747" gradientUnits="userSpaceOnUse">
<stop stop-color="#F70000" stop-opacity="0"/>
<stop offset="1" stop-color="#BC3838"/>
</linearGradient>
<linearGradient id="paint6_linear_" x1="375" y1="185.851" x2="200.739" y2="67.8751" gradientUnits="userSpaceOnUse">
<stop stop-color="#F70000" stop-opacity="0"/>
<stop offset="1" stop-color="#BC3838"/>
</linearGradient>
<linearGradient id="paint7_linear_" x1="281.709" y1="128.201" x2="359.601" y2="-20.9266" gradientUnits="userSpaceOnUse">
<stop stop-color="#740303"/>
<stop offset="1" stop-color="#FF0606" stop-opacity="0"/>
</linearGradient>
<linearGradient id="paint8_linear_" x1="188.418" y1="89.16" x2="266.31" y2="238.288" gradientUnits="userSpaceOnUse">
<stop stop-color="#740303"/>
<stop offset="1" stop-color="#FF0606" stop-opacity="0"/>
</linearGradient>
<clipPath id="clip0_">
<rect width="375" height="812" fill="white"/>
</clipPath>
</defs>
</svg>
